<svg xmlns="http://www.w3.org/2000/svg" xmlns:xlink="http://www.w3.org/1999/xlink" width="1024" zoomAndPan="magnify" viewBox="0 0 768 767.999994" height="1024" preserveAspectRatio="xMidYMid meet" version="1.0"><path fill="#ffffff" d="M 191.675781 177.097656 L 577.519531 177.097656 C 588.445312 177.097656 598.398438 183.632812 602.691406 193.683594 L 640.835938 282.558594 L 128.359375 282.558594 L 166.503906 193.683594 C 170.796875 183.632812 180.75 177.097656 191.675781 177.097656 Z M 191.675781 177.097656 " fill-opacity="1" fill-rule="nonzero"/><path fill="#32131d" d="M 682.394531 310.070312 L 86.800781 310.070312 L 141.238281 182.953125 C 149.921875 162.757812 169.628906 149.78125 191.578125 149.78125 L 577.421875 149.78125 C 599.371094 149.78125 619.175781 162.855469 627.761719 183.046875 Z M 169.921875 255.242188 L 599.273438 255.242188 L 577.519531 204.511719 L 191.675781 204.511719 Z M 191.675781 177.097656 L 191.675781 204.511719 Z M 191.675781 177.097656 " fill-opacity="1" fill-rule="nonzero"/><path fill="#ffffff" d="M 143.773438 327.824219 L 625.519531 327.824219 C 640.640625 327.824219 652.933594 340.117188 652.933594 355.238281 C 652.933594 356.214844 652.835938 357.191406 652.738281 358.070312 L 613.324219 732.207031 C 611.859375 746.15625 600.054688 756.691406 586.105469 756.691406 L 183.1875 756.691406 C 169.140625 756.691406 157.433594 746.058594 155.96875 732.207031 L 116.554688 358.167969 C 114.996094 343.140625 125.921875 329.582031 140.945312 328.019531 C 141.824219 327.921875 142.796875 327.824219 143.773438 327.824219 Z M 143.773438 327.824219 " fill-opacity="1" fill-rule="nonzero"/><path fill="#32131d" d="M 545.8125 756.789062 L 192.359375 756.789062 C 173.140625 756.789062 157.042969 742.253906 154.992188 723.132812 L 117.726562 369.386719 C 115.382812 347.238281 132.75 327.824219 155.089844 327.824219 L 614.203125 327.824219 C 636.542969 327.824219 653.90625 347.140625 651.566406 369.386719 L 617.519531 692.207031 C 613.617188 728.890625 582.691406 756.789062 545.8125 756.789062 Z M 241.722656 701.960938 L 527.570312 701.960938 C 546.789062 701.960938 562.886719 687.425781 564.933594 668.304688 L 590.691406 424.214844 C 593.03125 402.066406 575.667969 382.652344 553.324219 382.652344 L 215.96875 382.652344 C 193.625 382.652344 176.261719 401.96875 178.601562 424.214844 L 204.359375 668.304688 C 206.308594 687.425781 222.503906 701.960938 241.722656 701.960938 Z M 241.722656 701.960938 " fill-opacity="1" fill-rule="nonzero"/><path fill="#9c3c7c" d="M 186.992188 499.429688 L 583.277344 499.429688 L 572.835938 600.5 L 196.554688 602.160156 Z M 186.992188 499.429688 " fill-opacity="1" fill-rule="nonzero"/><path fill="#32131d" d="M 173.628906 589.574219 L 580.542969 589.574219 L 580.542969 649.867188 L 173.628906 649.867188 Z M 173.628906 440.214844 L 603.859375 440.214844 L 603.859375 500.503906 L 173.628906 500.503906 Z M 173.628906 440.214844 " fill-opacity="1" fill-rule="nonzero"/><path fill="#9c3c7c" d="M 128.359375 282.65625 L 640.835938 282.65625 C 665.808594 282.65625 686.003906 302.949219 686.003906 327.824219 C 686.003906 352.800781 665.710938 372.996094 640.835938 372.996094 L 128.359375 372.996094 C 103.386719 372.996094 83.191406 352.703125 83.191406 327.824219 C 83.191406 302.851562 103.386719 282.65625 128.359375 282.65625 Z M 128.359375 282.65625 " fill-opacity="1" fill-rule="nonzero"/><path fill="#32131d" d="M 640.835938 400.507812 L 128.359375 400.507812 C 88.359375 400.507812 55.777344 367.921875 55.777344 327.921875 C 55.777344 287.925781 88.359375 255.339844 128.359375 255.339844 L 640.835938 255.339844 C 680.835938 255.339844 713.417969 287.925781 713.417969 327.921875 C 713.417969 367.921875 680.933594 400.507812 640.835938 400.507812 Z M 128.359375 310.070312 C 118.507812 310.070312 110.507812 318.070312 110.507812 327.921875 C 110.507812 337.777344 118.507812 345.777344 128.359375 345.777344 L 640.835938 345.777344 C 650.6875 345.777344 658.6875 337.777344 658.6875 327.921875 C 658.6875 318.070312 650.6875 310.070312 640.835938 310.070312 Z M 233.429688 14.566406 C 248.0625 10.664062 263.089844 19.34375 266.992188 33.980469 L 281.136719 86.953125 C 285.039062 101.585938 276.355469 116.613281 261.722656 120.515625 C 247.089844 124.417969 232.066406 115.734375 228.164062 101.101562 L 214.015625 48.125 C 210.113281 33.492188 218.796875 18.46875 233.429688 14.566406 Z M 370.402344 14.566406 C 385.035156 10.664062 400.0625 19.34375 403.964844 33.980469 L 418.109375 86.953125 C 422.011719 101.585938 413.328125 116.613281 398.695312 120.515625 C 384.0625 124.417969 369.035156 115.734375 365.132812 101.101562 L 350.988281 48.125 C 347.183594 33.492188 355.867188 18.46875 370.402344 14.566406 Z M 507.472656 14.566406 C 522.105469 10.664062 537.128906 19.34375 541.03125 33.980469 L 555.179688 86.953125 C 559.082031 101.585938 550.398438 116.613281 535.765625 120.515625 C 521.128906 124.417969 506.105469 115.734375 502.203125 101.101562 L 488.058594 48.125 C 484.15625 33.492188 492.839844 18.46875 507.472656 14.566406 Z M 507.472656 14.566406 " fill-opacity="1" fill-rule="nonzero"/></svg>